HIERARCHY
ROOT Hips
{
	OFFSET 0.000000 0.000000 0.000000
	CHANNELS 6 Xposition Yposition Zposition Xrotation Yrotation Zrotation
	JOINT LeftUpLeg_virtual
	{
		OFFSET 0.000000 0.000000 0.000000
		CHANNELS 3 Xrotation Yrotation Zrotation
		JOINT LeftUpLeg
		{
			OFFSET 13.026900 -6.336304 -1.092800
			CHANNELS 3 Xrotation Yrotation Zrotation
			JOINT LeftLeg
			{
				OFFSET 0.524474 -46.096886 9.782700
				CHANNELS 3 Xrotation Yrotation Zrotation
				JOINT LeftFoot
				{
					OFFSET -0.524474 -53.427422 -12.948200
					CHANNELS 3 Xrotation Yrotation Zrotation
					JOINT LeftToeBase
					{
						OFFSET 0.192200 -14.009700 16.364100
						CHANNELS 3 Xrotation Yrotation Zrotation
						JOINT LeftToe_End
						{
							OFFSET -1.784700 -0.561700 9.474800
							CHANNELS 3 Xrotation Yrotation Zrotation
							End Site
							{
								OFFSET 0 0 0
							}
						}
					}
				}
			}
		}
	}
	JOINT RightUpLeg_virtual
	{
		OFFSET 0.000000 0.000000 0.000000
		CHANNELS 3 Xrotation Yrotation Zrotation
		JOINT RightUpLeg
		{
			OFFSET -12.883000 -6.336304 -1.092800
			CHANNELS 3 Xrotation Yrotation Zrotation
			JOINT RightLeg
			{
				OFFSET -0.524587 -46.096825 9.782800
				CHANNELS 3 Xrotation Yrotation Zrotation
				JOINT RightFoot
				{
					OFFSET 0.524587 -53.427383 -12.948300
					CHANNELS 3 Xrotation Yrotation Zrotation
					JOINT RightToeBase
					{
						OFFSET -0.192200 -14.009700 16.364100
						CHANNELS 3 Xrotation Yrotation Zrotation
						JOINT RightToe_End
						{
							OFFSET 1.784700 -0.561700 9.474800
							CHANNELS 3 Xrotation Yrotation Zrotation
							End Site
							{
								OFFSET 0 0 0
							}
						}
					}
				}
			}
		}
	}
	JOINT Spine_virtual
	{
		OFFSET 0.000000 0.000000 0.000000
		CHANNELS 3 Xrotation Yrotation Zrotation
		JOINT Spine
		{
			OFFSET 0.072000 7.257294 -0.789700
			CHANNELS 3 Xrotation Yrotation Zrotation
			JOINT Spine1
			{
				OFFSET 0.000000 12.508769 -0.658067
				CHANNELS 3 Xrotation Yrotation Zrotation
				JOINT Spine1_split
				{
					OFFSET 0.000000 12.508769 -0.658067
					CHANNELS 3 Xrotation Yrotation Zrotation
					JOINT Spine2
					{
						OFFSET 0.000000 12.508769 -0.658067
						CHANNELS 3 Xrotation Yrotation Zrotation
						JOINT Neck_virtual
						{
							OFFSET 0.000000 0.000000 0.000000
							CHANNELS 3 Xrotation Yrotation Zrotation
							JOINT Neck
							{
								OFFSET 0.000000 14.033295 7.520400
								CHANNELS 3 Xrotation Yrotation Zrotation
								JOINT Head
								{
									OFFSET 0.000000 8.198502 5.703100
									CHANNELS 3 Xrotation Yrotation Zrotation
									JOINT HeadTop_End
									{
										OFFSET 0.000000 17.760803 13.332701
										CHANNELS 3 Xrotation Yrotation Zrotation
										End Site
										{
											OFFSET 0 0 0
										}
									}
								}
							}
						}
						JOINT LeftShoulder_virtual
						{
							OFFSET 0.000000 0.000000 0.000000
							CHANNELS 3 Xrotation Yrotation Zrotation
							JOINT LeftShoulder
							{
								OFFSET 6.292450 5.785301 -0.669000
								CHANNELS 3 Xrotation Yrotation Zrotation
								JOINT LeftShoulder_split
								{
									OFFSET 6.292450 5.785301 -0.669000
									CHANNELS 3 Xrotation Yrotation Zrotation
									JOINT LeftArm
									{
										OFFSET 13.907140 -6.093903 1.965100
										CHANNELS 3 Xrotation Yrotation Zrotation
										JOINT LeftForeArm
										{
											OFFSET 34.140198 0.000000 0.000000
											CHANNELS 3 Xrotation Yrotation Zrotation
											JOINT LeftHand
											{
												OFFSET 40.960209 0.000000 0.000000
												CHANNELS 3 Xrotation Yrotation Zrotation
												End Site
												{
													OFFSET 0 0 0
												}
											}
										}
									}
								}
							}
						}
						JOINT RightShoulder_virtual
						{
							OFFSET 0.000000 0.000000 0.000000
							CHANNELS 3 Xrotation Yrotation Zrotation
							JOINT RightShoulder
							{
								OFFSET -6.292450 5.785301 -0.669000
								CHANNELS 3 Xrotation Yrotation Zrotation
								JOINT RightShoulder_split
								{
									OFFSET -6.292450 5.785301 -0.669000
									CHANNELS 3 Xrotation Yrotation Zrotation
									JOINT RightArm
									{
										OFFSET -13.907140 -6.093903 1.965100
										CHANNELS 3 Xrotation Yrotation Zrotation
										JOINT RightForeArm
										{
											OFFSET -34.140198 0.000000 0.000000
											CHANNELS 3 Xrotation Yrotation Zrotation
											JOINT RightHand
											{
												OFFSET -40.960209 0.000000 0.000000
												CHANNELS 3 Xrotation Yrotation Zrotation
												End Site
												{
													OFFSET 0 0 0
												}
											}
										}
									}
								}
							}
						}
					}
				}
			}
		}
	}
}
MOTION
Frames: 5
Frame Time: 0.03333333
-1.138509 51.680637 87.737831 0.000000 0.000000 0.000000 20.423787 -23.522961 -10.934779 -0.005442 4.219944 7.427581 97.246594 -4.907624 0.235648 21.980437 -2.822473 -20.647395 1.011707 -0.105639 -3.181793 0.000000 0.000000 0.000000 21.256099 -15.949209 -12.420499 -5.017453 16.778397 -4.616020 69.916398 10.175606 -10.138711 47.944250 3.604864 18.218628 12.736053 -2.967264 -0.511689 0.000000 0.000000 0.000000 21.291948 -21.730062 -11.337584 6.704294 0.312993 6.203763 -2.689775 2.366220 1.664760 0.000601 -3.510892 1.471637 0.000000 0.000000 0.000000 -4.070304 2.478261 2.139895 -59.084367 -1.466213 18.684295 16.425155 16.381288 -15.881660 0.000000 0.000000 0.000000 -4.589364 2.652688 1.600914 -19.181934 0.788032 -16.440960 -3.432674 4.368215 -3.189867 11.246735 6.716604 -49.189684 72.274289 -32.088454 38.504638 0.000000 0.000000 0.000000 -4.666924 2.529270 1.711721 -18.539425 1.436767 22.818803 -8.687061 -0.016688 -1.423827 4.703357 -9.134803 51.015380 7.106168 31.953462 9.466687 0.000000 0.000000 0.000000 
-0.340230 51.525848 91.211853 0.000000 0.000000 0.000000 22.232626 -25.511658 -10.808523 3.523146 4.296594 6.128237 92.722038 -2.806757 -1.903528 20.171167 -0.680440 -20.075053 0.055755 -0.622970 -2.970298 0.000000 0.000000 0.000000 22.807979 -16.614695 -12.741409 -4.974862 14.880865 -4.679480 69.733807 10.177642 -9.868918 46.290869 4.878559 18.246048 12.244945 -3.129468 -0.775891 0.000000 0.000000 0.000000 22.547764 -22.114250 -11.570934 6.649710 0.002501 6.688028 -3.083891 2.168697 1.993192 0.356494 -2.986011 1.267557 0.000000 0.000000 0.000000 -4.274747 2.379660 2.360817 -60.843414 -2.164752 19.593074 17.582415 16.787630 -16.483630 0.000000 0.000000 0.000000 -4.871678 2.495255 1.935316 -19.234513 0.797738 -16.371965 -2.698239 4.147382 -3.523610 12.116661 10.582439 -46.140718 75.336461 -34.024437 39.246376 0.000000 0.000000 0.000000 -4.892254 2.416040 1.921208 -18.421739 0.179624 22.353406 -7.769725 -0.213069 -0.475511 4.826257 -5.772839 53.053477 -1.771828 36.641468 13.768599 0.000000 0.000000 0.000000 
0.353727 51.233475 94.462341 0.000000 0.000000 0.000000 24.238994 -26.915252 -10.336727 6.678212 3.447884 4.699853 88.706290 -1.481548 -3.141251 19.072666 0.637748 -20.775388 -1.337315 -1.072270 -2.377944 0.000000 0.000000 0.000000 24.759634 -17.210680 -12.764919 -4.895186 12.342250 -5.052019 69.431578 10.333677 -9.368986 45.657195 6.805598 18.623880 10.836826 -3.303465 -1.205996 0.000000 0.000000 0.000000 24.204777 -22.134862 -11.452515 6.350135 -0.340245 6.757697 -3.287569 1.965144 2.427310 0.697650 -2.372606 1.022341 0.000000 0.000000 0.000000 -4.278793 2.262208 2.691178 -62.859085 -2.798006 19.899164 18.508590 16.609353 -17.017288 0.000000 0.000000 0.000000 -4.978227 2.366431 2.376390 -19.321126 0.382466 -15.694759 -1.472639 3.643090 -3.919867 13.748552 11.849633 -42.873490 74.819183 -37.872829 38.179142 0.000000 0.000000 0.000000 -4.804788 2.324582 2.257521 -18.422569 -0.902915 21.882809 -6.635412 -0.831062 0.457181 5.418292 -2.505304 55.492944 -7.596429 43.256251 15.797538 0.000000 0.000000 0.000000 
0.777078 50.771358 97.498398 0.000000 0.000000 0.000000 26.394090 -27.154267 -9.726544 8.912967 1.291631 3.206543 84.911218 -0.992808 -3.243725 18.826556 1.034997 -22.608228 -1.836374 -1.403822 -1.707549 0.000000 0.000000 0.000000 27.048080 -17.618734 -12.584705 -4.513392 9.706428 -5.507142 68.405854 10.475565 -8.685986 45.494107 8.715746 18.972544 9.283838 -3.457042 -1.642920 0.000000 0.000000 0.000000 26.360640 -21.811198 -11.110093 5.867604 -0.613866 6.460832 -3.318382 1.798893 2.903670 0.859524 -1.727723 0.999290 0.000000 0.000000 0.000000 -4.165389 2.160376 3.085208 -65.031973 -3.248997 19.626943 19.168395 15.793472 -17.410051 0.000000 0.000000 0.000000 -4.934871 2.293703 2.839996 -19.423760 -0.365722 -14.535218 -0.518616 3.193234 -4.368370 15.609236 11.102511 -39.729598 70.340205 -42.380603 34.656667 0.000000 0.000000 0.000000 -4.470614 2.285453 2.634352 -18.609375 -1.609326 21.565895 -5.637753 -1.555825 1.116376 6.382156 0.005627 57.082275 -9.326539 50.543513 14.733167 0.000000 0.000000 0.000000 
0.934159 50.205227 100.208618 0.000000 0.000000 0.000000 28.852372 -26.087600 -9.264784 10.228791 -2.147752 1.691652 80.305662 -0.612820 -2.467712 18.455730 0.979056 -24.681010 -1.191753 -1.546098 -1.292887 0.000000 0.000000 0.000000 29.708604 -17.684268 -12.273868 -3.492187 7.478622 -5.808317 66.544122 10.312188 -7.822859 45.309156 9.817236 18.754832 8.249757 -3.559945 -1.901086 0.000000 0.000000 0.000000 28.996141 -21.102665 -10.763953 5.279819 -0.757665 5.933367 -3.240581 1.691944 3.342161 0.930754 -1.133188 1.143262 0.000000 0.000000 0.000000 -4.014436 2.076239 3.432828 -67.297506 -3.491131 18.894882 19.645251 14.507375 -17.691201 0.000000 0.000000 0.000000 -4.788113 2.318653 3.219751 -19.509389 -1.201987 -13.094648 -0.209097 2.616670 -4.988846 17.818714 9.230209 -37.119455 62.734734 -46.511300 29.156848 0.000000 0.000000 0.000000 -4.028207 2.284702 2.962039 -18.939698 -1.978062 21.438033 -4.708168 -2.006206 1.180632 7.569391 1.523595 57.279916 -5.798357 57.546687 9.497971 0.000000 0.000000 0.000000 
